<?xml version="1.0" encoding="utf-8"?>
<!-- Generator: Adobe Illustrator 27.2.0, SVG Export Plug-In . SVG Version: 6.00 Build 0)  -->
<svg version="1.1" id="Layer_1" xmlns="http://www.w3.org/2000/svg" xmlns:xlink="http://www.w3.org/1999/xlink" x="0px" y="0px"
	 viewBox="0 0 24 24" style="enable-background:new 0 0 24 24;" xml:space="preserve">
<style type="text/css">
	.st0{fill-rule:evenodd;clip-rule:evenodd;fill:#EFE1CA;}
</style>
<path class="st0" d="M12,0C5.4,0,0,5.4,0,12c0,6.6,5.4,12,12,12c6.6,0,12-5.4,12-12C24,5.4,18.6,0,12,0z M15.2,18.3l-0.4-1.3
	l0.9,0.8l0.8,0.8l1.5,1.3V7.4c0-0.8-0.6-1.4-1.4-1.4H7.3C6.5,6,5.9,6.6,5.9,7.4v9.5c0,0.8,0.6,1.4,1.4,1.4
	C7.3,18.3,15.2,18.3,15.2,18.3z M14,15.1l-0.5-0.6c0.9-0.3,1.3-0.8,1.3-0.8c-0.3,0.2-0.6,0.3-0.8,0.4c-0.4,0.1-0.7,0.2-1,0.3
	c-0.7,0.1-1.3,0.1-1.8,0c-0.4-0.1-0.7-0.2-1-0.3C10,14.1,9.8,14,9.6,13.9l0,0l0,0l0,0l0,0l-0.2-0.1c0,0,0.3,0.6,1.2,0.8l-0.5,0.6
	c-1.5,0-2.1-1.1-2.1-1.1C8,11.8,9,10,9,10c1-0.8,2-0.7,2-0.7L11,9.3c-1.3,0.4-1.8,0.9-1.8,0.9l0.4-0.2c0.7-0.3,1.3-0.4,1.6-0.4
	l0.1,0c0.4-0.1,0.9-0.1,1.4,0c0.7,0.1,1.4,0.3,2.1,0.7c0,0-0.6-0.5-1.7-0.9l0.1-0.1c0,0,1,0,2,0.7c0,0,1,1.8,1,4.1
	C16.1,14.1,15.6,15.1,14,15.1z M13.3,11.9c-0.4,0-0.7,0.4-0.7,0.8s0.3,0.8,0.7,0.8c0.4,0,0.7-0.4,0.7-0.8S13.7,11.9,13.3,11.9z
	 M10.7,11.9c-0.4,0-0.7,0.4-0.7,0.8s0.3,0.8,0.7,0.8c0.4,0,0.7-0.4,0.7-0.8C11.5,12.2,11.1,11.9,10.7,11.9z"/>
</svg>
