<?xml version="1.0" encoding="utf-8"?>
<!-- Generator: Adobe Illustrator 27.2.0, SVG Export Plug-In . SVG Version: 6.00 Build 0)  -->
<svg version="1.1" id="Layer_1" xmlns="http://www.w3.org/2000/svg" xmlns:xlink="http://www.w3.org/1999/xlink" x="0px" y="0px"
	 viewBox="0 0 24 24" style="enable-background:new 0 0 24 24;" xml:space="preserve">
<style type="text/css">
	.st0{fill:#EFE1CA;}
</style>
<path class="st0" d="M10.2,17.8L12,16h3.3l2.1-2.1V7.3h-10V16h2.8C10.2,16,10.2,17.8,10.2,17.8z M14.1,9.7h1.3v3.7h-1.3V9.7z
	 M10.7,9.7H12v3.7h-1.3V9.7z M12,0C5.4,0,0,5.4,0,12s5.4,12,12,12s12-5.4,12-12S18.6,0,12,0z M18.7,14.6L15,18.2h-2.7L10.5,20H8.7
	v-1.8H5.3V8.4L6.3,6h12.4C18.7,6,18.7,14.6,18.7,14.6z"/>
</svg>
